<?xml version="1.0" encoding="utf-8"?>
<!-- Generator: Adobe Illustrator 24.0.3, SVG Export Plug-In . SVG Version: 6.00 Build 0)  -->
<!DOCTYPE svg PUBLIC "-//W3C//DTD SVG 1.1//EN" "http://www.w3.org/Graphics/SVG/1.1/DTD/svg11.dtd" [
	<!ENTITY ns_extend "http://ns.adobe.com/Extensibility/1.0/">
	<!ENTITY ns_ai "http://ns.adobe.com/AdobeIllustrator/10.0/">
	<!ENTITY ns_graphs "http://ns.adobe.com/Graphs/1.0/">
	<!ENTITY ns_vars "http://ns.adobe.com/Variables/1.0/">
	<!ENTITY ns_imrep "http://ns.adobe.com/ImageReplacement/1.0/">
	<!ENTITY ns_sfw "http://ns.adobe.com/SaveForWeb/1.0/">
	<!ENTITY ns_custom "http://ns.adobe.com/GenericCustomNamespace/1.0/">
	<!ENTITY ns_adobe_xpath "http://ns.adobe.com/XPath/1.0/">
]>
<svg version="1.1" id="Layer_1" xmlns:x="&ns_extend;" xmlns:i="&ns_ai;" xmlns:graph="&ns_graphs;"
	 xmlns="http://www.w3.org/2000/svg" xmlns:xlink="http://www.w3.org/1999/xlink" x="0px" y="0px" viewBox="0 0 535.7 390.7"
	 style="enable-background:new 0 0 535.7 390.7;" xml:space="preserve">
<style type="text/css">
	.st0{fill:#FF0000;}
	.st1{fill:#FFFFFF;}
</style>
<metadata>
	<sfw  xmlns="&ns_sfw;">
		<slices></slices>
		<sliceSourceBounds  bottomLeftOrigin="true" height="390.7" width="535.7" x="102" y="397.2"></sliceSourceBounds>
	</sfw>
</metadata>
<g id="layer1">
	<g>
		<path class="st0" d="M0,190.1l0,200.5l1,0l534.6,0.1l0-200.5L0,190.1"/>
	</g>
	<g>
		<path class="st1" d="M20.1,210.1l0,160.4l1,0l487.9,0.1l0-160.4L20.1,210.1"/>
	</g>
	<g>
		<path class="st0" d="M37.1,229.8v123.1l0.9,0h454.9l0-123.1L37.1,229.8"/>
	</g>
	<g>
		<g>
			<path class="st1" d="M207,251.6l0,7.6l8.3,0l0-7.6L207,251.6z M279.2,271C279.2,271,279.2,271,279.2,271c1.8,0,3,0.9,3.8,2.7
				c0.7,1.8,1,4.6,1,8.6l0,18.7c0,6.2-0.7,9.9-2.1,11.2c-0.6,0.6-1.5,1-2.7,1c0,0,0,0,0,0c-2.2,0-3.6-1-4.4-2.9
				c-0.8-1.9-1.2-5-1.2-9.3l0-18.9c0-2.3,0.1-4.3,0.3-5.8c0.2-1.5,0.7-2.8,1.4-3.8C276.2,271.6,277.4,271,279.2,271z M124.5,270.8
				C124.5,270.8,124.5,270.8,124.5,270.8c1.1,0,2,0.3,2.6,0.8c1.6,1.2,2.5,4.8,2.5,10.5l0,25.5c0,3.7-0.3,6.6-1,8.6
				c-0.6,2-2,3-4.1,3c0,0,0,0,0,0c-0.1,0-0.1,0-0.2,0c-1,0-1.8-0.3-2.5-0.8c-1.7-1.2-2.5-4.8-2.5-10.8l0-25.5c0-3.6,0.3-6.4,1-8.3
				C120.9,271.8,122.3,270.8,124.5,270.8z M369.5,271.2C369.5,271.2,369.5,271.2,369.5,271.2c1.1,0,2,0.3,2.6,0.8
				c1.6,1.2,2.5,4.8,2.5,10.5l0,25.5c0,3.7-0.3,6.6-1,8.6c-0.6,2-2,3-4.1,3c0,0,0,0,0,0c-0.1,0-0.1,0-0.2,0c-1,0-1.8-0.3-2.5-0.8
				c-1.7-1.2-2.5-4.8-2.5-10.8l0-25.5c0-3.6,0.3-6.4,1-8.3C365.9,272.2,367.3,271.2,369.5,271.2z M406.5,271.2
				C406.5,271.2,406.5,271.2,406.5,271.2c1.1,0,2,0.3,2.6,0.8c1.6,1.2,2.5,4.8,2.5,10.5l0,25.5c0,3.7-0.3,6.6-1,8.6
				c-0.6,2-2,3-4.1,3c0,0,0,0,0,0c-0.1,0-0.1,0-0.2,0c-1,0-1.8-0.3-2.5-0.8c-1.7-1.2-2.5-4.8-2.5-10.8l0-25.5c0-3.6,0.3-6.4,1-8.3
				C402.9,272.2,404.3,271.2,406.5,271.2z M166.6,263.9c-2.4,0-4.4,0.7-6.1,2c-1.7,1.3-2.8,3-3.4,5.1l0-6.3l-8.3,0l-0.1,60.7l8.3,0
				l0.1-47.3c0-2.2,0.5-3.9,1.5-5.2c1-1.2,2.5-1.9,4.4-1.9c0,0,0,0,0,0c3.2,0,4.8,2,4.8,6.1l-0.1,48.2l8.3,0l0.1-48.7
				c0.3-3.7,2.2-5.6,5.9-5.6c0,0,0,0,0,0c3.2,0,4.9,2.1,4.8,6.2l-0.1,48.2l8.3,0l0.1-47.9c0-4.5-0.8-7.8-2.5-10.1
				c-1.7-2.3-4.1-3.4-7.3-3.5c0,0,0,0,0,0c-2.3,0-4.3,0.6-6.1,1.7c-1.8,1.1-3.1,2.6-4.2,4.5C173.8,266,170.9,263.9,166.6,263.9
				C166.6,263.9,166.6,263.9,166.6,263.9z M207,264.7l-0.1,60.7l8.3,0l0.1-60.7L207,264.7z M245.8,264c-2.7,0-4.9,0.7-6.8,2.1
				c-1.8,1.4-3,3.1-3.5,5.1l0-6.4l-8.3,0l-0.1,60.7l8.3,0l0.1-47.5c0-2.3,0.6-4.1,1.7-5.2c1.1-1.2,2.5-1.7,4.2-1.7c0,0,0,0,0,0
				c1.7,0,3,0.5,3.9,1.5c0.9,1,1.4,2.6,1.4,4.6l-0.1,48.4l8.3,0l0.1-48.4c0-4.3-0.8-7.6-2.5-9.8C250.7,265.1,248.5,264,245.8,264
				C245.8,264,245.8,264,245.8,264z M449.5,264.3c-2.7,0-4.9,0.7-6.8,2.1c-1.8,1.4-3,3.1-3.5,5.1l0-6.4l-8.3,0l-0.1,60.7l8.3,0
				l0.1-47.5c0-2.3,0.6-4.1,1.7-5.2c1.1-1.2,2.5-1.7,4.2-1.7c0,0,0,0,0,0c1.7,0,3,0.5,3.9,1.5c0.9,1,1.4,2.6,1.4,4.6l-0.1,48.4
				l8.3,0l0.1-48.4c0-4.3-0.8-7.6-2.5-9.8C454.5,265.4,452.3,264.3,449.5,264.3C449.5,264.3,449.5,264.3,449.5,264.3z M88.8,263.8
				c-4.2,0-7.4,1.2-9.6,3.7c-1,1.1-1.9,2.9-2.7,5.4c-0.8,2.4-1.2,6.3-1.2,11.5l0,20.3c0,3.8,0.2,7.1,0.6,9.9
				c1.2,7.6,5.3,11.3,12.4,11.3c0,0,0,0,0,0c4.5,0,7.8-1.3,10-3.8c2.2-2.6,3.3-8,3.3-16.3l0-3.9l-8.2,0l0,5.9c0,5-0.4,8.1-1.3,9.3
				c-0.8,1.2-2.2,1.7-4,1.7c0,0,0,0,0,0c-1.8,0-3-0.8-3.7-2.5c-0.6-1.6-0.9-4.5-0.9-8.7l0-25.8c0-2.9,0.2-5.2,0.6-6.9
				c0.6-2.6,2.3-4,4.9-4c0,0,0,0,0,0c1.5,0.4,2.8,1.5,3.9,3.2c0.3,1.2,0.4,3.6,0.4,7.4l0,5.3l8.2,0l0-4.2c0-2.5-0.1-4.6-0.3-6.4
				c-0.4-4.2-1.6-7.3-3.4-9.4C96.2,264.9,93.1,263.8,88.8,263.8C88.9,263.8,88.9,263.8,88.8,263.8z M124.1,263.9
				c-2.4,0-4.5,0.5-6.4,1.4c-4.5,2.4-6.8,8.6-6.8,18.4l0,21.5c0,5.4,0.5,9.6,1.4,12.7c1.7,5.4,5.7,8.1,12.1,8.1c0,0,0,0,0,0
				c4.3,0,7.6-1.3,9.9-4c2.3-2.7,3.5-8.3,3.5-16.8l0-21.5c0-4.9-0.5-9-1.6-12.2C134.5,266.5,130.5,263.9,124.1,263.9
				C124.2,263.9,124.1,263.9,124.1,263.9z M369.2,264.3c-2.4,0-4.5,0.5-6.4,1.4c-4.5,2.4-6.8,8.6-6.8,18.4l0,21.5
				c0,5.4,0.5,9.6,1.4,12.7c1.7,5.4,5.7,8.1,12.1,8.1c0,0,0,0,0,0c4.3,0,7.6-1.3,9.9-4c2.3-2.7,3.5-8.3,3.5-16.8l0-21.5
				c0-4.9-0.5-9-1.6-12.2C379.6,266.8,375.5,264.3,369.2,264.3C369.2,264.3,369.2,264.3,369.2,264.3z M335,264.2
				c-4.2,0-7.4,1.2-9.6,3.5c-2.3,2.3-3.4,5.9-3.4,10.7c0,6.1,2.6,11.6,7.9,16.6c0.4,0.4,1.1,1.1,2.2,2.1c1.1,1,1.8,1.7,2.1,2
				c4,4,6.1,8.2,6.1,12.6c0,2.8-0.4,4.8-1.2,5.9c-0.8,1.1-2,1.7-3.8,1.7c0,0,0,0,0,0c-3.2,0-4.8-3.5-4.8-10.5l0-4.5l-8.1,0l0,4.6
				c0,6.2,1.1,10.6,3.3,13.4c2.2,2.8,5.5,4.2,9.8,4.2c0,0,0,0,0,0c8.6,0,12.9-4.9,13-14.7c0-6.5-2.8-12.5-8.6-18l-4.4-4.1
				c-3.7-3.7-5.5-7.5-5.5-11.4c0-2.5,0.4-4.3,1.3-5.3c0.8-1,2.1-1.6,3.8-1.6c0,0,0,0,0,0c1.7,0,2.9,0.9,3.6,2.6c0.7,1.7,1,4.4,1,7.9
				l0,4.2l7.9,0l0-2.9c0-9-1.8-14.8-5.6-17.2C340.2,264.8,337.9,264.2,335,264.2C335,264.2,335,264.2,335,264.2z M406.2,264.3
				c-2.4,0-4.5,0.5-6.4,1.4c-4.5,2.4-6.8,8.6-6.8,18.4l0,21.5c0,5.4,0.5,9.6,1.4,12.7c1.7,5.4,5.7,8.1,12.1,8.1c0,0,0,0,0,0
				c4.3,0,7.6-1.3,9.9-4c2.3-2.7,3.5-8.3,3.5-16.8l0-21.5c0-4.9-0.5-9-1.6-12.2C416.6,266.9,412.5,264.3,406.2,264.3
				C406.2,264.3,406.2,264.3,406.2,264.3z M276.7,264.1c-7.5,0-11.2,6.5-11.3,19.4l0,17.4c0,5.8,0.7,10.4,2.2,13.8
				c1.5,3.4,4.3,5.1,8.3,5.2c0,0,0,0,0,0c2,0,3.7-0.4,5-1.1c1.3-0.7,2.3-2,3-3.9h0l0,5.8c0,2.3-0.5,4.2-1.6,5.5
				c-1.1,1.4-2.7,2.1-4.8,2.1c0,0,0,0,0,0c-3.3,0-6.4-1-9.3-3l-3,5.7c3.3,2.6,7.4,3.9,12.3,3.9c0,0,0,0,0,0c2.5,0,4.6-0.3,6.5-1
				c5.5-2,8.2-6.6,8.2-13.9l0.1-55l-8.3,0l0,4.5C282.9,265.9,280.5,264.1,276.7,264.1C276.7,264.1,276.7,264.1,276.7,264.1z"/>
		</g>
	</g>
	<g>
		<path class="st0" d="M266.1,6c-1.1-0.1-2,0.4-3,1.5L125.5,202.2c-1.1,3.2-0.1,5.1,3.1,5.7c1.5-0.1,2.6-0.7,3.3-1.8L266,16.3
			l124.3,180.2c1.8,2.1,3.9,2.1,6.2-0.2c0.8-1.7,0.8-3.1-0.1-4.2L269.2,7.6c-0.9-1.1-1.8-1.6-2.9-1.6"/>
	</g>
	<g>
		<path class="st0" d="M265.9,7.5c1.3,0.1,2,0.8,2.1,2.1c-0.1,1.3-0.8,2-2.1,2.1c-1.3-0.1-2-0.8-2.1-2.1
			C264,8.3,264.7,7.6,265.9,7.5 M265.9,0c-2.6,0.1-4.9,1-6.8,2.8c-1.8,1.9-2.8,4.2-2.8,6.8c0,2.6,1,4.9,2.8,6.8
			c1.9,1.9,4.2,2.8,6.8,2.8c2.6,0,4.9-1,6.8-2.8c1.8-1.9,2.8-4.2,2.8-6.8c0-2.6-1-4.9-2.8-6.8C270.9,1,268.6,0,265.9,0"/>
	</g>
</g>
</svg>
