<?xml version="1.0" encoding="iso-8859-1"?>
<!-- Generator: Adobe Illustrator 19.0.0, SVG Export Plug-In . SVG Version: 6.00 Build 0)  -->
<svg version="1.1" id="Capa_1" xmlns="http://www.w3.org/2000/svg" xmlns:xlink="http://www.w3.org/1999/xlink" x="0px" y="0px"
	 viewBox="0 0 490 490" style="enable-background:new 0 0 490 490;" xml:space="preserve">
<g>
	<circle cx="245" cy="39.483" r="39.483"/>
	<path d="M164.966,125.385c0,36.816,0,45.353,0,45.353s77.898,0,78.166,0l-38.15-82.701
		C204.983,88.037,164.966,88.57,164.966,125.385z"/>
	<path d="M285.017,88.037l-38.149,82.701h78.166c0,0,0-8.537,0-45.353C325.034,88.57,285.017,88.037,285.017,88.037z"/>
	<polygon points="245,88.037 217.522,88.037 245,148.861 272.478,88.037 	"/>
	<circle cx="409.966" cy="358.746" r="39.483"/>
	<path d="M329.934,444.648c0,36.816,0,45.352,0,45.352s77.897,0,78.165,0l-38.149-82.701
		C369.951,407.299,329.934,407.833,329.934,444.648z"/>
	<path d="M449.983,407.299L411.835,490H490c0,0,0-8.537,0-45.352C490,407.833,449.983,407.299,449.983,407.299z"/>
	<polygon points="437.445,407.299 409.966,407.299 382.489,407.299 409.966,468.124 	"/>
	<circle cx="80.034" cy="358.746" r="39.483"/>
	<path d="M40.017,407.299c0,0-40.017,0.534-40.017,37.349C0,481.463,0,490,0,490s77.897,0,78.166,0L40.017,407.299z"/>
	<path d="M160.066,444.648c0-36.815-40.017-37.349-40.017-37.349L81.901,490h78.165C160.066,490,160.066,481.463,160.066,444.648z"
		/>
	<polygon points="80.034,407.299 52.555,407.299 80.034,468.124 107.512,407.299 	"/>
	<polygon points="176.108,350.376 240.41,398.228 240.41,365.691 310.153,365.691 310.153,335.066 240.41,335.066 240.41,302.525 	
		"/>
	<polygon points="303.254,195.175 314.887,274.479 337.896,251.469 387.209,300.792 408.862,279.139 359.549,229.817 
		382.559,206.808 	"/>
	<polygon points="102.791,300.792 152.103,251.47 175.112,274.479 186.745,195.175 107.441,206.808 130.451,229.817 81.138,279.139 
			"/>
</g>
<g>
</g>
<g>
</g>
<g>
</g>
<g>
</g>
<g>
</g>
<g>
</g>
<g>
</g>
<g>
</g>
<g>
</g>
<g>
</g>
<g>
</g>
<g>
</g>
<g>
</g>
<g>
</g>
<g>
</g>
</svg>
